<svg xmlns="http://www.w3.org/2000/svg" viewBox="0 0 678 343" width="678" height="343"><title>BirdieBuddy mark</title><path fill="#d4a843" fill-rule="evenodd" d="M270 4L286 5L300 11L313 24L314 28L316 29L319 41L324 42L340 50L341 52L352 56L353 58L317 70L314 73L310 86L313 128L309 158L300 183L282 213L261 235L259 235L255 240L246 245L244 248L218 262L203 267L227 296L237 297L240 294L254 272L269 254L277 241L281 238L285 230L297 216L299 211L302 209L304 204L307 202L309 197L312 195L314 190L320 184L324 176L333 166L344 149L352 141L352 139L362 128L362 126L376 112L376 110L406 80L406 78L412 71L418 52L431 30L441 20L443 20L451 13L471 5L496 5L509 10L522 21L528 32L530 41L537 43L540 46L543 46L563 56L564 58L530 69L524 76L521 86L524 119L521 154L516 171L509 184L509 187L494 211L479 226L476 231L474 231L468 238L455 246L453 249L429 262L414 267L423 277L423 279L428 283L428 285L433 289L433 291L438 296L457 300L462 305L564 305L571 302L576 297L579 287L583 281L596 248L606 228L606 225L610 217L621 207L627 204L638 202L654 205L661 211L663 211L668 217L674 232L674 245L669 266L657 293L655 294L648 307L627 328L617 334L603 338L9 338L4 332L4 312L9 306L80 305L81 302L85 299L85 297L88 295L88 293L91 291L91 289L94 287L94 285L106 269L79 278L70 283L64 284L26 300L24 300L24 298L28 295L28 293L34 287L44 271L50 265L52 260L55 258L55 256L67 242L69 237L79 226L83 218L90 211L92 206L106 189L112 178L118 172L120 167L126 161L137 144L142 140L149 129L156 123L160 116L197 78L204 64L209 47L217 33L224 27L224 25L226 25L237 15L254 7L270 5ZM270 17L283 18L294 23L303 33L307 43L307 49L302 55L302 58L305 58L306 60L300 74L297 87L299 108L299 137L297 150L289 176L283 188L281 189L275 200L272 202L272 204L269 206L269 208L244 232L228 241L227 243L202 254L178 260L161 262L123 261L183 232L184 230L203 220L204 218L215 212L217 209L219 209L233 196L235 196L249 181L261 160L264 149L264 132L261 121L256 112L247 103L238 98L248 116L250 123L251 147L244 165L228 185L226 185L221 191L219 191L204 204L200 205L199 207L192 210L183 217L177 219L176 221L166 225L165 227L132 243L122 246L114 251L111 251L88 262L61 272L74 252L83 242L85 237L89 234L91 229L108 208L112 200L121 190L125 182L131 176L133 171L140 164L145 155L160 138L163 132L208 85L214 75L220 55L231 37L238 30L254 21L264 18L270 18ZM480 17L495 18L508 25L515 35L516 41L518 43L518 49L513 55L513 58L517 60L508 83L510 137L507 155L496 184L494 185L493 189L486 197L484 202L481 204L481 206L477 209L477 211L452 234L448 235L434 245L413 254L399 258L374 262L333 262L340 257L350 254L390 234L409 221L413 220L414 218L428 210L430 207L432 207L441 198L443 198L461 179L466 169L468 168L473 156L475 148L475 133L473 124L466 111L458 103L449 98L451 104L458 114L461 123L462 144L454 166L435 188L433 188L429 193L427 193L425 196L423 196L408 208L404 209L390 219L382 222L381 224L373 227L372 229L363 232L340 244L337 244L327 250L324 250L320 253L317 253L272 272L274 267L281 260L300 231L304 228L304 226L316 212L319 205L331 191L335 183L349 166L354 157L363 148L363 146L371 138L371 136L379 128L379 126L387 119L387 117L418 86L427 70L430 58L439 41L458 24L469 19L480 18ZM279 35L285 35L289 37L293 43L293 48L288 55L279 56L273 51L272 48L273 40L277 36L279 36ZM489 35L499 36L504 44L504 48L500 54L496 56L490 56L486 54L483 50L483 41L486 37L489 36ZM637 215L649 217L657 224L661 234L661 247L653 272L645 288L643 289L642 293L635 301L635 303L619 318L603 325L535 327L527 326L527 318L565 318L578 313L586 305L591 296L595 283L598 279L600 271L605 263L605 260L608 256L608 253L620 226L628 218L637 216ZM635 224L646 225L653 234L653 245L645 270L633 292L620 307L607 315L601 317L591 317L592 310L609 274L624 235L628 228L635 225ZM315 268L317 268L317 270L291 305L251 305L249 302L243 299L239 299L243 296L249 295L251 293L257 292L259 290L265 289L267 287L315 269ZM183 271L190 271L190 273L202 285L202 287L206 290L206 292L213 300L208 300L204 296L202 296L198 292L198 290L189 282L189 280L181 273L183 272ZM396 271L400 271L424 299L423 301L416 299L395 276L393 272L396 272ZM120 274L166 275L186 298L186 300L183 301L180 305L97 305L103 295L110 288L112 283L116 280L118 275L120 275ZM330 274L376 274L397 298L397 300L394 301L391 305L307 305L310 303L312 298L315 296L315 294L322 287L322 285L330 275ZM17 317L25 318L25 327L16 326L17 318ZM45 317L46 327L38 327L38 318L45 318ZM66 317L67 326L59 327L58 323L58 318L66 318ZM79 317L88 318L88 326L79 326L79 318ZM107 317L108 326L100 326L100 318L107 318ZM121 318L208 318L208 323L206 326L122 326L121 319ZM221 318L225 318L224 326L219 326L221 319ZM239 318L419 318L419 323L417 326L408 327L235 327L239 319ZM432 318L436 318L435 326L429 326L432 319ZM450 318L514 318L514 326L456 327L447 326L450 319Z"></path></svg>